<svg id="Layer_1" data-name="Layer 1" xmlns="http://www.w3.org/2000/svg" viewBox="0 0 512 512">
  <defs>
    <style>
      .cls-1 {
        fill: #ff9b46;
      }

      .cls-2 {
        fill: #ff823c;
      }

      .cls-3 {
        fill: #f56e2d;
      }

      .cls-4 {
        fill: #e4eaf8;
      }

      .cls-5 {
        fill: #c7cfe2;
      }
    </style>
  </defs>
  <title>icon</title>
  <path class="cls-1" d="M100.22,466.76,217.56,15.45a9.17,9.17,0,0,1,8.87-6.86h59.14a9.17,9.17,0,0,1,8.87,6.86L411.78,466.76"/>
  <g>
    <path class="cls-2" d="M249,8.59H226.43a9.17,9.17,0,0,0-8.87,6.86L100.22,466.76H219.35L247,15.45C247.2,11.41,248.06,8.59,249,8.59Z"/>
    <path class="cls-2" d="M457.59,466.76H54.41a9.17,9.17,0,0,0-9.17,9.16v18.33a9.17,9.17,0,0,0,9.17,9.16H457.59a9.17,9.17,0,0,0,9.17-9.16V475.92A9.17,9.17,0,0,0,457.59,466.76Z"/>
  </g>
  <path class="cls-3" d="M201,494.25V475.92a9.16,9.16,0,0,1,9.16-9.16H54.41a9.17,9.17,0,0,0-9.17,9.16v18.33a9.17,9.17,0,0,0,9.17,9.16H210.18A9.16,9.16,0,0,1,201,494.25Z"/>
  <g>
    <polygon class="cls-4" points="124.05 375.12 387.95 375.12 373.66 320.14 138.34 320.14 124.05 375.12"/>
    <polygon class="cls-4" points="171.7 191.86 340.3 191.86 326.01 136.88 185.99 136.88 171.7 191.86"/>
  </g>
  <g>
    <polygon class="cls-5" points="171.7 191.86 236.16 191.86 239.53 136.88 185.99 136.88 171.7 191.86"/>
    <polygon class="cls-5" points="124.05 375.12 224.95 375.12 228.32 320.14 138.34 320.14 124.05 375.12"/>
  </g>
  <path d="M338.47,458.17H320.14a8.59,8.59,0,1,0,0,17.18h18.33a8.59,8.59,0,0,0,0-17.18Z"/>
  <path d="M457.59,458.17H418.42L302.75,13.29A17.75,17.75,0,0,0,285.57,0H226.43a17.75,17.75,0,0,0-17.18,13.29L93.58,458.17H54.41a17.78,17.78,0,0,0-17.76,17.75v18.33A17.78,17.78,0,0,0,54.41,512H457.59a17.78,17.78,0,0,0,17.76-17.75V475.92A17.78,17.78,0,0,0,457.59,458.17ZM145,328.73h138.5a8.59,8.59,0,0,0,0-17.18h-134l28.89-111.1H333.66l28.88,111.1h-42.4a8.59,8.59,0,1,0,0,17.18H367l9.83,37.8H135.16ZM225.88,17.61a.57.57,0,0,1,.55-.43h59.14a.57.57,0,0,1,.55.43L314.9,128.29H301.81a8.59,8.59,0,1,0,0,17.18h17.55l9.83,37.8H182.81l9.83-37.8h72.52a8.59,8.59,0,1,0,0-17.18H197.1ZM458.17,494.25a.58.58,0,0,1-.58.57H54.41a.58.58,0,0,1-.58-.57V475.92a.57.57,0,0,1,.58-.57H283.49a8.6,8.6,0,0,0,0-17.19H111.33l19.36-74.45H381.31l19.36,74.45H375.12a8.6,8.6,0,0,0,0,17.19h82.47a.57.57,0,0,1,.58.57v18.33Z"/>
</svg>
